<?xml version="1.0" encoding="utf-8"?>
<!-- Generator: Adobe Illustrator 19.0.0, SVG Export Plug-In . SVG Version: 6.00 Build 0)  -->
<svg xmlns="http://www.w3.org/2000/svg" xmlns:xlink="http://www.w3.org/1999/xlink" version="1.1" id="Layer_1" x="0px" y="0px" viewBox="0 2 98 98" style="enable-background:new 0 2 98 98;" xml:space="preserve" width="512" height="512">
<style type="text/css">
	.st0{fill:url(#SVGID_1_);}
</style>
<linearGradient id="SVGID_1_" gradientUnits="userSpaceOnUse" x1="49" y1="8.2002" x2="49" y2="93.7998">
	<stop offset="0" style="stop-color:#00EFD1"/>
	<stop offset="1" style="stop-color:#00ACEA"/>
</linearGradient>
<path class="st0" d="M71.5,55.3c-0.5-0.9-1.5-1.5-2.6-1.5H52V11.2c0-1.7-1.3-3-3-3c-1.7,0-3,1.3-3,3v42.6H29.1  c-1.1,0-2.1,0.6-2.6,1.5s-0.5,2.1,0,3l19.9,34c0.5,0.9,1.5,1.5,2.6,1.5s2.1-0.6,2.6-1.5l19.9-34C72,57.4,72,56.2,71.5,55.3z   M49,84.9L34.3,59.8h29.3L49,84.9z"/>
</svg>
